<?xml version="1.0" standalone="no"?>
<!DOCTYPE svg PUBLIC "-//W3C//DTD SVG 20010904//EN"
 "http://www.w3.org/TR/2001/REC-SVG-20010904/DTD/svg10.dtd">
<svg version="1.0" xmlns="http://www.w3.org/2000/svg"
 width="805.000000pt" height="544.000000pt" viewBox="0 0 805.000000 544.000000"
 preserveAspectRatio="xMidYMid meet">

<g transform="translate(0.000000,544.000000) scale(0.100000,-0.100000)"
fill="#000000" stroke="none">
<path d="M4182 5224 c-17 -12 -22 -25 -22 -59 0 -35 -4 -45 -20 -50 -25 -8
-80 -74 -80 -97 0 -14 -8 -18 -34 -18 -38 0 -57 -16 -32 -26 13 -5 16 -27 16
-130 0 -102 3 -125 16 -132 13 -7 3 -20 -52 -70 l-67 -62 -68 0 c-55 0 -69 -3
-69 -15 0 -8 5 -15 10 -15 6 0 10 -18 10 -40 0 -22 5 -40 10 -40 6 0 10 -53
10 -140 0 -133 -1 -140 -20 -140 -20 0 -28 -24 -11 -35 5 -3 9 -19 9 -35 -1
-25 -5 -30 -25 -30 -13 0 -26 -7 -29 -15 -4 -9 8 -97 25 -196 24 -139 30 -198
26 -253 -7 -86 -55 -872 -55 -898 0 -16 -9 -18 -65 -18 l-65 0 0 140 c0 119 2
140 15 140 24 0 29 27 11 55 -14 22 -15 25 -1 25 8 0 15 7 15 15 0 8 -9 15
-20 15 -11 0 -20 7 -20 15 0 8 5 15 10 15 6 0 10 7 10 15 0 12 -15 15 -67 16
-43 1 -59 4 -44 8 33 9 38 29 9 33 -17 2 -24 11 -26 32 -2 16 -15 46 -28 68
l-25 39 -112 -3 c-105 -3 -112 -4 -123 -26 -6 -13 -17 -29 -23 -35 -6 -6 -11
-26 -11 -43 0 -26 -4 -33 -22 -36 -29 -4 -26 -21 4 -30 14 -3 -1 -6 -39 -7
-59 -1 -86 -12 -63 -26 18 -11 11 -35 -10 -35 -11 0 -20 -7 -20 -15 0 -8 7
-15 16 -15 15 0 15 -2 -1 -26 -18 -28 -14 -54 10 -54 12 0 15 -17 15 -100 l0
-100 -1095 0 c-967 0 -1095 -2 -1095 -15 0 -13 128 -15 1095 -15 l1095 0 0
-24 c0 -16 -7 -26 -21 -29 -44 -12 -5 -27 67 -27 100 0 95 -18 -6 -22 -77 -3
-114 -20 -57 -26 26 -3 27 -5 27 -66 l0 -62 -80 -39 c-44 -21 -80 -43 -80 -48
0 -5 18 -32 40 -59 22 -28 40 -57 40 -64 0 -12 -159 -14 -995 -14 -878 0 -995
-2 -995 -15 0 -13 117 -15 995 -15 l995 0 0 -595 c0 -346 -4 -595 -9 -595 -5
0 -14 22 -21 49 -15 64 -67 125 -123 144 -37 12 -42 18 -42 43 0 28 -2 29 -45
29 -43 0 -45 -1 -42 -26 2 -23 -5 -30 -53 -53 -60 -30 -101 -85 -112 -150 -8
-50 -38 -50 -46 0 -11 65 -52 120 -112 150 -48 23 -55 30 -53 53 3 24 0 26
-45 29 l-48 3 3 -32 c3 -29 0 -33 -30 -41 -53 -14 -117 -85 -132 -147 -15 -62
-41 -68 -51 -11 -12 74 -64 135 -134 157 -24 8 -30 15 -30 39 0 28 -2 29 -45
29 -43 0 -45 -1 -42 -26 2 -23 -5 -30 -53 -54 -64 -31 -101 -78 -111 -142 -9
-56 -39 -61 -47 -7 -11 65 -52 120 -112 149 -48 24 -55 31 -55 57 0 28 -1 29
-42 26 -40 -3 -43 -5 -43 -32 -1 -24 -7 -30 -39 -41 -21 -8 -54 -28 -73 -46
-55 -55 -63 -99 -63 -373 l0 -241 -132 0 c-112 0 -133 -2 -133 -15 0 -13 379
-15 3355 -15 2976 0 3355 2 3355 15 0 13 -21 15 -133 15 l-132 0 0 245 c0 142
-5 261 -11 283 -14 51 -71 112 -123 132 -38 15 -42 19 -38 46 4 29 4 29 -43
29 -47 0 -47 0 -43 -29 4 -27 0 -31 -38 -46 -69 -26 -134 -114 -134 -182 0 -7
-8 -13 -19 -13 -14 0 -20 10 -24 41 -8 63 -50 117 -113 146 -48 22 -54 28 -52
51 3 26 1 27 -42 27 -43 0 -45 -1 -45 -30 0 -25 -5 -31 -34 -39 -51 -15 -107
-73 -121 -126 -7 -25 -14 -51 -16 -57 -9 -31 -32 -9 -47 45 -18 66 -63 116
-123 137 -32 11 -38 17 -39 41 0 25 -4 29 -33 32 -51 5 -64 -3 -53 -32 9 -22
6 -25 -32 -40 -23 -9 -55 -28 -71 -42 -32 -30 -65 -97 -66 -131 0 -16 -6 -23
-19 -23 -14 0 -20 10 -25 43 -10 64 -47 111 -111 142 -48 24 -55 31 -53 54 3
25 1 26 -42 26 -43 0 -45 -1 -45 -29 0 -24 -6 -31 -30 -39 -69 -22 -122 -86
-140 -169 -3 -16 -10 -28 -15 -28 -7 0 -9 207 -8 592 l3 593 993 3 c872 2 992
4 992 17 0 13 -119 15 -995 15 -843 0 -995 2 -995 14 0 8 18 36 40 62 22 27
40 53 40 59 0 6 -36 29 -80 50 l-80 39 0 62 c0 61 1 63 28 66 56 6 19 23 -58
26 -101 4 -106 22 -6 22 72 0 111 15 67 27 -14 3 -21 13 -21 29 l0 24 1095 0
c967 0 1095 2 1095 15 0 13 -128 15 -1095 15 l-1095 0 0 100 c0 83 3 100 15
100 24 0 28 26 10 54 -16 24 -16 26 -1 26 9 0 16 7 16 15 0 8 -9 15 -20 15
-21 0 -28 24 -10 35 23 14 -4 25 -63 26 -40 1 -54 3 -38 8 34 9 39 31 7 31
-22 0 -26 4 -26 30 0 17 -11 48 -25 70 l-25 40 -110 0 -110 0 -25 -40 c-14
-22 -25 -53 -25 -70 0 -26 -4 -30 -26 -30 -32 0 -27 -22 7 -31 16 -5 2 -7 -38
-8 -59 -1 -86 -12 -63 -26 18 -11 11 -35 -10 -35 -11 0 -20 -7 -20 -15 0 -8 7
-15 16 -15 15 0 15 -2 -1 -26 -18 -28 -14 -54 10 -54 13 0 15 -21 15 -140 l0
-140 -65 0 c-61 0 -65 1 -65 23 0 29 -47 808 -54 896 -4 46 3 118 25 248 17
101 28 190 25 198 -3 8 -16 15 -29 15 -20 0 -24 5 -25 30 0 17 6 33 15 39 20
11 8 31 -18 31 -18 0 -19 8 -19 140 0 87 4 140 10 140 6 0 10 18 10 39 0 26 5
41 16 45 33 13 0 26 -64 26 l-67 0 -69 62 c-59 53 -66 63 -52 73 13 10 16 33
16 134 0 104 2 121 16 121 32 0 6 25 -29 28 -29 3 -37 8 -37 22 0 23 -54 87
-81 95 -15 5 -19 16 -19 50 0 49 -24 75 -70 75 -14 0 -36 -7 -48 -16z m86 -49
c3 -29 1 -30 -38 -30 -36 0 -40 2 -40 26 0 34 8 41 45 37 25 -3 30 -8 33 -33z
m40 -91 c23 -14 42 -29 42 -34 0 -15 -43 -11 -64 5 -11 8 -36 15 -56 15 -20 0
-45 -7 -56 -15 -10 -8 -30 -15 -43 -15 -24 0 -24 0 -5 21 26 30 95 60 119 53
11 -3 39 -17 63 -30z m-32 -59 c10 -8 37 -15 59 -16 l40 -2 -40 -6 -40 -6 -6
-95 -5 -95 -2 78 c-2 62 -6 81 -22 97 -24 24 -30 24 -55 6 -15 -11 -20 -32
-26 -97 l-6 -84 -1 98 -2 97 -42 1 -43 2 47 6 c27 4 53 12 60 19 16 16 60 15
84 -3z m-206 -165 c0 -91 -3 -110 -15 -110 -12 0 -15 19 -15 110 0 91 3 110
15 110 12 0 15 -19 15 -110z m70 21 c0 -86 -5 -101 -36 -101 -2 0 -4 43 -4 95
0 88 1 95 20 95 19 0 20 -7 20 -89z m220 -7 c0 -84 -2 -95 -16 -90 -9 3 -18 6
-20 6 -2 0 -4 41 -4 90 0 83 1 90 20 90 19 0 20 -7 20 -96z m60 -14 c0 -91 -3
-110 -15 -110 -12 0 -15 19 -15 110 0 91 3 110 15 110 12 0 15 -19 15 -110z
m-172 32 c3 -57 1 -62 -18 -62 -18 0 -20 6 -20 58 0 32 3 62 7 66 17 17 28 -5
31 -62z m44 -119 c42 -15 45 -18 30 -30 -16 -12 -16 -14 1 -27 30 -23 19 -27
-20 -6 -48 25 -93 25 -143 0 -40 -21 -54 -18 -23 5 16 12 9 40 -8 30 -5 -4 -9
-3 -9 0 0 9 82 45 105 45 11 0 41 -7 67 -17z m98 -78 c0 -14 -4 -25 -10 -25
-11 0 -14 33 -3 43 11 11 13 8 13 -18z m-300 -5 c0 -11 -4 -20 -10 -20 -5 0
-10 9 -10 20 0 11 5 20 10 20 6 0 10 -9 10 -20z m198 -10 c75 -40 72 -32 72
-192 0 -117 -3 -148 -15 -158 -8 -7 -21 -10 -30 -7 -12 5 -15 33 -17 144 l-3
137 -57 2 c-31 1 -61 -2 -67 -5 -6 -4 -11 -60 -13 -141 -3 -112 -6 -135 -18
-136 -36 -1 -40 16 -40 165 0 163 -6 149 80 193 44 23 62 23 108 -2z m-218
-190 c0 -122 -3 -149 -15 -154 -10 -3 -15 -19 -15 -44 0 -21 -5 -43 -12 -50
-6 -6 -9 -14 -6 -17 7 -7 408 -8 415 -1 4 4 1 12 -5 18 -7 7 -12 29 -12 50 0
25 -5 41 -15 44 -12 5 -15 32 -15 154 0 138 1 148 20 153 13 3 36 -10 75 -44
51 -45 61 -49 106 -49 46 0 49 -2 49 -25 0 -23 -4 -25 -42 -25 -35 0 -53 8
-93 40 -27 22 -56 40 -63 40 -10 0 -12 -35 -10 -157 l3 -158 55 -27 c39 -20
64 -26 88 -22 24 4 32 1 32 -11 0 -10 -10 -15 -34 -15 -38 0 -57 -17 -35 -31
8 -5 33 -9 57 -9 23 0 42 -4 42 -10 0 -6 -40 -10 -100 -10 -82 0 -100 3 -100
15 0 13 -30 15 -210 15 -180 0 -210 -2 -210 -15 0 -12 -18 -15 -100 -15 -60 0
-100 4 -100 10 0 10 10 12 70 14 24 1 36 6 38 19 3 14 -4 17 -37 17 -27 0 -41
4 -41 13 0 9 11 12 33 10 20 -2 52 7 87 24 l55 28 3 158 c2 123 0 157 -10 157
-8 0 -35 -18 -62 -40 -40 -33 -56 -40 -92 -40 -40 0 -44 2 -44 25 0 23 3 25
51 25 47 0 55 4 106 49 37 33 60 47 74 44 18 -5 19 -16 19 -153z m200 10 l0
-70 -40 0 -40 0 0 70 0 70 40 0 40 0 0 -70z m-270 -94 l0 -124 -31 -11 c-18
-6 -34 -11 -35 -11 -2 0 -4 49 -4 109 l0 110 33 25 c17 14 33 26 35 26 1 0 2
-56 2 -124z m528 -35 c1 -61 0 -111 -3 -111 -3 0 -19 7 -35 15 l-30 16 0 121
0 121 33 -25 32 -26 3 -111z m-628 -11 l0 -110 -25 0 -25 0 0 110 0 110 25 0
25 0 0 -110z m710 0 l0 -110 -25 0 -25 0 0 110 0 110 25 0 25 0 0 -110z m-340
2 c0 -37 -1 -37 -40 -38 -40 -1 -40 -1 -40 37 0 39 0 39 40 39 40 0 40 0 40
-38z m-180 -87 c0 -14 -4 -25 -10 -25 -5 0 -10 11 -10 25 0 14 5 25 10 25 6 0
10 -11 10 -25z m300 0 c0 -14 -4 -25 -10 -25 -5 0 -10 11 -10 25 0 14 5 25 10
25 6 0 10 -11 10 -25z m-250 -5 c0 -11 -4 -20 -10 -20 -5 0 -10 9 -10 20 0 11
5 20 10 20 6 0 10 -9 10 -20z m80 0 c0 -15 -7 -20 -25 -20 -18 0 -25 5 -25 20
0 15 7 20 25 20 18 0 25 -5 25 -20z m70 0 c0 -13 -7 -20 -20 -20 -13 0 -20 7
-20 20 0 13 7 20 20 20 13 0 20 -7 20 -20z m50 0 c0 -11 -4 -20 -10 -20 -5 0
-10 9 -10 20 0 11 5 20 10 20 6 0 10 -9 10 -20z m-250 -200 c0 -47 3 -60 15
-60 12 0 15 13 15 60 l0 60 110 0 109 0 3 -62 c2 -35 8 -63 13 -63 6 0 11 28
13 63 3 53 6 62 22 62 16 0 19 -9 22 -62 4 -74 22 -84 26 -15 l3 47 45 0 44 0
0 -52 c0 -29 5 -145 10 -258 5 -113 16 -383 25 -600 8 -217 17 -414 19 -437
l4 -43 -62 0 c-33 0 -66 4 -72 8 -11 7 -21 224 -45 907 -6 176 -12 326 -14
333 -3 9 -45 12 -164 12 l-160 0 -5 -32 c-3 -18 -10 -175 -16 -348 -21 -641
-33 -865 -44 -872 -6 -4 -37 -8 -68 -8 l-58 0 0 58 c0 56 21 570 40 1002 5
118 10 241 10 273 l0 57 44 0 45 0 3 -47 c4 -69 22 -59 26 15 3 54 6 62 22 62
18 0 20 -7 20 -60z m-190 -12 c0 -24 -7 -187 -15 -363 -7 -176 -19 -450 -25
-610 -6 -159 -13 -309 -16 -332 -5 -43 -6 -43 -46 -43 l-41 0 6 58 c3 31 22
344 44 695 l38 637 27 0 c26 0 28 -3 28 -42z m734 -250 c35 -581 55 -915 62
-1005 l6 -93 -40 0 -40 0 -6 63 c-3 34 -8 127 -11 207 -6 172 -22 551 -35 850
-13 295 -15 270 18 270 l28 0 18 -292z m-824 217 c0 -16 -3 -61 -7 -100 l-7
-70 -16 95 c-9 52 -15 97 -14 100 1 3 12 6 23 6 17 0 21 -7 21 -31z m886 6
c-3 -9 -10 -51 -17 -94 -6 -43 -13 -76 -14 -75 -2 2 -6 46 -10 99 l-7 97 26
-5 c19 -4 25 -10 22 -22z m-324 -281 c4 -102 14 -367 23 -589 9 -222 14 -405
12 -407 -1 -2 -42 22 -90 53 l-88 55 -84 -56 c-47 -31 -88 -56 -91 -56 -4 0
-3 51 0 113 6 108 33 835 37 987 1 41 4 79 6 83 3 4 64 6 136 5 l132 -3 7
-185z m-935 -467 c3 -9 -24 -12 -101 -12 -101 0 -133 8 -102 26 22 12 199 0
203 -14z m1800 2 c2 -6 -39 -11 -107 -12 -101 -3 -122 2 -103 21 11 10 206 2
210 -9z m-1777 -85 c0 -22 -3 -40 -7 -40 -3 0 -30 14 -60 30 -29 17 -58 30
-64 30 -7 0 -34 -13 -61 -30 -26 -16 -53 -30 -58 -30 -6 0 -10 18 -10 40 l0
40 130 0 130 0 0 -40z m1800 0 c0 -22 -4 -40 -10 -40 -5 0 -32 14 -58 30 -27
17 -55 30 -62 30 -7 0 -35 -13 -62 -30 -26 -16 -53 -30 -58 -30 -6 0 -10 18
-10 40 l0 40 130 0 130 0 0 -40z m-1888 -33 c31 -20 34 -24 21 -33 -23 -15 -6
-36 25 -32 l27 3 3 -177 3 -178 -121 0 -121 0 3 178 3 177 29 0 c33 0 47 21
21 31 -13 5 -8 12 22 29 47 29 41 29 85 2z m1800 -1 c33 -17 36 -21 20 -32
-21 -15 -10 -28 26 -29 l27 0 3 -177 3 -178 -121 0 -121 0 3 178 3 177 27 -3
c31 -4 48 17 25 32 -13 9 -10 13 21 32 20 12 39 21 42 20 3 -1 22 -10 42 -20z
m-1998 -51 c4 -12 -4 -15 -39 -15 -33 0 -45 4 -45 15 0 11 11 15 39 15 25 0
41 -5 45 -15z m396 0 c0 -11 -12 -15 -45 -15 -35 0 -43 3 -39 15 4 10 20 15
45 15 28 0 39 -4 39 -15z m1404 0 c4 -12 -4 -15 -39 -15 -33 0 -45 4 -45 15 0
11 11 15 39 15 25 0 41 -5 45 -15z m396 0 c0 -11 -12 -15 -45 -15 -35 0 -43 3
-39 15 4 10 20 15 45 15 28 0 39 -4 39 -15z m-2250 -70 c0 -20 -5 -25 -25 -25
-27 0 -33 18 -13 38 20 20 38 14 38 -13z m62 -147 l3 -173 145 0 145 0 3 173
c2 144 5 172 17 172 13 0 15 -28 15 -180 l0 -180 -179 0 -180 0 0 180 c0 150
2 180 14 180 12 0 15 -30 17 -172z m406 147 c11 -24 10 -25 -18 -25 -25 0 -30
4 -30 25 0 18 5 25 18 25 11 0 24 -11 30 -25z m1332 0 c0 -20 -5 -25 -25 -25
-27 0 -33 18 -13 38 20 20 38 14 38 -13z m62 -147 l3 -173 145 0 145 0 3 173
c2 144 5 172 17 172 13 0 15 -28 15 -180 l0 -180 -180 0 -180 0 0 180 c1 147
4 180 15 180 12 0 15 -32 17 -172z m406 147 c11 -24 10 -25 -18 -25 -25 0 -30
4 -30 25 0 18 5 25 18 25 11 0 24 -11 30 -25z m-2268 -195 c0 -118 -2 -140
-15 -140 -13 0 -15 22 -15 140 0 118 2 140 15 140 13 0 15 -22 15 -140z m450
0 c0 -118 -2 -140 -15 -140 -13 0 -15 22 -15 140 0 118 2 140 15 140 13 0 15
-22 15 -140z m1350 0 c0 -118 -2 -140 -15 -140 -13 0 -15 22 -15 140 0 118 2
140 15 140 13 0 15 -22 15 -140z m450 0 c0 -118 -2 -140 -15 -140 -13 0 -15
22 -15 140 0 118 2 140 15 140 13 0 15 -22 15 -140z m-827 -228 l289 -187
-121 -3 c-135 -3 -139 -6 -91 -62 31 -35 40 -85 18 -93 -10 -3 -10 -9 0 -26
15 -26 18 -1646 2 -1656 -6 -4 -11 98 -12 287 l-3 293 -395 0 -395 0 -3 -293
c-1 -189 -6 -291 -12 -287 -14 9 -14 1655 0 1655 6 0 10 7 10 15 0 8 -4 15
-10 15 -21 0 -9 57 20 90 48 56 44 59 -91 62 l-120 3 298 193 c171 110 304
190 312 187 8 -3 145 -90 304 -193z m-1103 -27 l0 -85 -116 0 -115 0 2 78 c1
42 4 80 6 85 2 4 53 7 114 7 l109 0 0 -85z m498 80 c-3 -3 -61 -41 -129 -85
-115 -74 -127 -80 -177 -80 l-53 0 3 58 c3 54 4 57 31 60 15 2 27 9 27 18 0
11 -18 14 -86 14 -54 0 -83 4 -79 10 4 6 94 10 237 10 127 0 229 -2 226 -5z
m1047 -5 c4 -6 -25 -10 -79 -10 -68 0 -86 -3 -86 -14 0 -9 12 -16 28 -18 26
-3 27 -6 30 -60 l3 -58 -52 0 c-49 0 -63 6 -173 77 -67 42 -125 80 -130 85 -6
4 94 8 221 8 144 0 234 -4 238 -10z m263 -77 l3 -83 -115 0 -116 0 0 85 0 86
113 -3 112 -3 3 -82z m-2068 -23 l0 -60 -40 0 -40 0 0 60 0 60 40 0 40 0 0
-60z m370 0 l0 -60 -40 0 -40 0 0 53 c0 30 3 57 7 60 3 4 21 7 40 7 l33 0 0
-60z m1438 -2 l3 -58 -41 0 -40 0 0 61 0 60 38 -3 37 -3 3 -57z m372 2 l0 -60
-40 0 -40 0 0 60 0 60 40 0 40 0 0 -60z m-1730 -94 c0 -2 -15 -14 -34 -25 -32
-20 -46 -21 -317 -20 l-284 1 50 24 c49 23 56 24 318 24 147 0 267 -2 267 -4z
m1790 -21 l45 -24 -282 -1 c-269 0 -284 1 -317 21 -20 12 -36 23 -36 25 0 2
123 4 273 4 268 -1 273 -1 317 -25z m-1815 -82 c5 -13 13 -23 17 -23 12 0 9
-68 -3 -76 -8 -4 -8 -9 0 -17 8 -8 11 -256 11 -839 0 -731 -2 -827 -15 -822
-13 5 -15 111 -15 870 l0 864 -294 0 -294 0 -26 35 -27 35 318 -2 318 -3 10
-22z m200 17 c-3 -5 -39 -10 -80 -10 -41 0 -77 5 -80 10 -4 6 25 10 80 10 55
0 84 -4 80 -10z m1010 0 c-3 -5 -39 -10 -80 -10 -41 0 -77 5 -80 10 -4 6 25
10 80 10 55 0 84 -4 80 -10z m663 -22 l-26 -33 -296 -3 -296 -2 0 -870 c0
-767 -2 -870 -15 -870 -13 0 -15 99 -15 830 0 547 3 830 10 830 6 0 10 7 10
15 0 8 -4 15 -10 15 -5 0 -10 16 -10 35 0 19 5 35 10 35 6 0 10 6 10 13 0 35
20 37 338 37 l315 0 -25 -32z m-1698 -55 l0 -33 -60 0 c-59 0 -60 0 -60 28 0
16 2 31 5 34 3 2 30 4 60 4 l55 -1 0 -32z m983 28 c34 -1 37 -3 37 -31 l0 -30
-60 0 -60 0 0 33 c0 29 3 33 23 31 12 -1 39 -3 60 -3z m-1193 -889 c0 -467 -2
-851 -4 -853 -2 -2 -36 -3 -75 -1 -70 4 -71 4 -71 32 0 16 7 30 15 34 8 3 15
10 15 16 0 6 -55 10 -155 10 -131 0 -155 -2 -155 -15 0 -8 5 -15 10 -15 6 0
10 -15 10 -32 l0 -33 -70 0 -70 0 0 853 0 852 275 0 275 0 0 -848z m1870 -1
l0 -849 -70 -4 -70 -3 0 33 c0 17 5 32 10 32 6 0 10 7 10 15 0 13 -24 15 -155
15 -100 0 -155 -4 -155 -10 0 -6 7 -13 15 -16 8 -4 15 -18 15 -34 0 -28 -1
-28 -71 -32 -39 -2 -73 -1 -75 1 -2 2 -4 386 -4 853 l0 848 275 0 275 0 0
-849z m-1660 -28 l0 -828 -60 3 -60 4 0 824 0 824 60 0 60 0 0 -827z m1020 3
l0 -824 -60 -4 -60 -3 0 828 0 827 60 0 60 0 0 -824z m-3430 -133 c0 -5 -5
-15 -10 -23 -8 -12 -10 -11 -10 8 0 12 5 22 10 22 6 0 10 -3 10 -7z m460 -9
c0 -8 -4 -12 -10 -9 -5 3 -10 10 -10 16 0 5 5 9 10 9 6 0 10 -7 10 -16z m470
7 c0 -6 -4 -13 -10 -16 -5 -3 -10 1 -10 9 0 9 5 16 10 16 6 0 10 -4 10 -9z
m460 -7 c0 -8 -4 -12 -10 -9 -5 3 -10 10 -10 16 0 5 5 9 10 9 6 0 10 -7 10
-16z m2960 1 c0 -8 -4 -15 -10 -15 -5 0 -10 7 -10 15 0 8 5 15 10 15 6 0 10
-7 10 -15z m460 -7 c0 -19 -2 -20 -10 -8 -13 19 -13 30 0 30 6 0 10 -10 10
-22z m470 7 c0 -8 -4 -15 -10 -15 -5 0 -10 7 -10 15 0 8 5 15 10 15 6 0 10 -7
10 -15z m460 -7 c0 -18 -2 -20 -9 -8 -6 8 -7 18 -5 22 9 14 14 9 14 -14z
m-5780 -52 c0 -8 -14 -19 -32 -25 -46 -16 -87 -59 -99 -103 -11 -43 -33 -53
-23 -10 20 83 61 124 152 151 1 1 2 -5 2 -13z m153 -34 c35 -32 72 -132 48
-132 -6 0 -11 7 -11 16 0 36 -44 93 -89 116 -25 13 -48 24 -50 25 -1 1 0 6 4
12 7 13 69 -10 98 -37z m317 30 c0 -4 -20 -15 -45 -26 -49 -20 -82 -57 -91
-105 -7 -32 -24 -43 -24 -16 0 23 28 86 48 109 32 36 112 63 112 38z m136 -22
c31 -22 64 -81 64 -113 0 -35 -15 -27 -23 11 -9 43 -53 90 -97 103 -24 7 -37
16 -33 25 5 14 52 1 89 -26z m296 2 c-50 -17 -90 -58 -104 -107 -11 -38 -12
-38 -16 -12 -5 39 39 111 80 129 51 24 62 26 70 14 5 -7 -7 -16 -30 -24z m182
-10 c22 -19 55 -88 56 -114 0 -30 -17 -20 -24 13 -9 47 -40 83 -88 104 -54 24
-51 22 -43 34 7 13 69 -10 99 -37z m316 30 c0 -4 -20 -15 -45 -26 -49 -20 -82
-57 -91 -105 -7 -32 -24 -43 -24 -16 0 23 28 86 48 109 32 36 112 63 112 38z
m105 -3 c55 -26 85 -66 92 -122 3 -31 2 -38 -6 -27 -6 8 -11 22 -11 30 0 26
-59 88 -95 101 -19 7 -35 19 -35 26 0 17 2 17 55 -8z m2815 -17 c-45 -15 -88
-62 -97 -104 -7 -36 -23 -47 -23 -16 0 32 34 97 62 117 36 26 82 40 90 27 5
-7 -8 -16 -32 -24z m184 -10 c22 -19 55 -88 56 -114 0 -32 -18 -19 -24 17 -8
43 -63 101 -105 110 -30 6 -38 15 -25 28 8 8 73 -19 98 -41z m315 26 c-2 -2
-25 -13 -50 -26 -45 -23 -89 -80 -89 -116 0 -9 -5 -16 -11 -16 -24 0 12 100
48 132 28 26 86 48 97 37 5 -5 8 -10 5 -11z m140 -17 c29 -21 53 -63 65 -113
10 -43 -12 -33 -23 10 -12 44 -53 87 -99 103 -18 6 -32 17 -32 24 0 18 49 4
89 -24z m331 19 c0 -5 -13 -11 -30 -15 -55 -12 -110 -74 -110 -125 0 -11 -4
-20 -10 -20 -13 0 -13 31 1 67 15 40 48 73 94 94 38 17 55 17 55 -1z m153 -37
c34 -33 62 -123 38 -123 -5 0 -11 14 -15 31 -9 47 -40 83 -88 104 -54 24 -51
22 -43 34 9 15 72 -13 108 -46z m306 35 c-2 -2 -25 -13 -50 -26 -45 -23 -89
-80 -89 -116 0 -9 -5 -16 -11 -16 -24 0 12 100 48 132 28 26 86 48 97 37 5 -5
8 -10 5 -11z m135 -13 c31 -21 61 -69 69 -112 9 -46 -7 -41 -22 6 -12 43 -66
97 -106 107 -14 3 -25 12 -25 19 0 17 44 6 84 -20z m-5786 -45 c37 -23 75 -91
55 -97 -15 -5 -17 -33 -3 -33 6 0 10 -7 10 -15 0 -8 -4 -15 -10 -15 -14 0 -12
-28 3 -33 9 -3 9 -7 -2 -20 -11 -14 -11 -20 -1 -32 10 -12 10 -18 0 -30 -10
-12 -10 -18 1 -32 11 -13 11 -17 2 -20 -15 -5 -17 -33 -3 -33 6 0 10 -7 10
-15 0 -8 -4 -15 -10 -15 -5 0 -10 -7 -10 -15 0 -8 5 -15 10 -15 6 0 10 -7 10
-15 0 -8 -4 -15 -10 -15 -5 0 -10 -7 -10 -15 0 -8 5 -15 10 -15 6 0 10 -19 10
-42 l0 -43 -133 1 -132 2 -3 37 c-3 28 1 41 13 48 15 8 15 10 -1 28 -17 18
-16 20 2 33 18 14 18 15 2 21 -10 4 -18 13 -18 20 0 7 8 16 18 20 16 6 16 7
-1 20 -16 11 -17 16 -5 34 11 18 11 23 -2 31 -13 9 -13 12 3 21 18 10 18 12 1
30 -17 18 -16 20 2 33 18 14 18 15 2 21 -23 9 -23 31 -1 39 12 5 14 9 5 18
-16 16 -15 49 3 72 43 56 123 72 183 36z m457 4 c43 -20 74 -77 58 -103 -10
-15 -9 -22 3 -32 13 -10 13 -14 -1 -29 -14 -15 -14 -18 1 -31 14 -12 14 -14
-2 -26 -14 -10 -15 -15 -4 -28 10 -12 10 -18 0 -30 -11 -13 -10 -18 4 -28 16
-12 16 -14 2 -26 -15 -13 -15 -16 -1 -31 14 -15 14 -19 1 -29 -12 -10 -13 -17
-4 -31 9 -14 9 -22 -1 -33 -10 -12 -10 -17 1 -24 13 -8 18 -74 7 -83 -4 -3
-64 -4 -133 -2 l-126 3 0 38 c0 20 6 43 13 50 10 11 10 14 0 18 -15 6 -17 33
-3 33 6 0 10 7 10 15 0 8 -4 15 -10 15 -14 0 -13 27 1 32 8 3 8 10 -2 26 -12
19 -12 24 0 32 12 7 12 11 2 24 -11 13 -11 19 -1 31 10 12 10 18 0 30 -10 12
-10 18 1 32 11 13 11 17 2 20 -15 5 -17 33 -3 33 14 0 12 28 -2 33 -21 6 17
74 54 97 40 24 88 26 133 4z m473 -4 c37 -23 75 -91 55 -97 -15 -5 -17 -33 -3
-33 6 0 10 -7 10 -15 0 -8 -4 -15 -10 -15 -14 0 -12 -28 3 -33 9 -3 9 -7 -2
-20 -11 -14 -11 -20 -1 -32 10 -12 10 -18 0 -30 -10 -12 -10 -18 0 -30 10 -12
10 -18 -1 -32 -11 -13 -11 -17 -1 -20 14 -5 16 -33 2 -33 -5 0 -10 -7 -10 -15
0 -8 5 -15 10 -15 14 0 12 -27 -2 -33 -10 -4 -10 -7 0 -18 6 -7 12 -30 12 -51
l0 -38 -125 0 c-69 0 -128 0 -132 0 -5 0 -9 16 -11 36 -2 27 1 40 13 47 15 8
15 10 -2 29 -17 19 -17 20 0 30 17 9 17 11 2 27 -14 17 -14 19 1 32 14 12 14
14 -2 26 -17 12 -17 14 0 32 17 18 17 20 -1 30 -17 11 -17 11 0 22 18 10 18
12 0 31 -17 19 -17 20 0 30 17 9 17 11 2 27 -14 16 -14 20 -1 30 12 10 13 17
3 31 -9 15 -8 26 5 53 30 62 122 86 186 47z m457 4 c65 -30 67 -39 70 -315 l3
-248 -134 -3 -134 -3 0 41 c0 22 6 46 13 53 10 11 10 14 0 18 -15 6 -17 33 -3
33 6 0 10 7 10 15 0 8 -4 15 -10 15 -5 0 -10 7 -10 15 0 8 5 15 10 15 6 0 10
7 10 15 0 8 -4 15 -10 15 -14 0 -12 28 3 33 9 3 9 7 -2 20 -11 14 -11 20 0 34
11 13 11 17 2 20 -15 5 -17 33 -3 33 6 0 10 7 10 15 0 8 -4 15 -10 15 -5 0
-10 7 -10 15 0 8 5 15 10 15 14 0 12 28 -2 33 -21 6 17 74 54 97 40 24 88 26
133 4z m2953 2 c15 -8 35 -22 44 -32 21 -24 34 -74 19 -74 -6 0 -11 -7 -11
-15 0 -8 5 -15 10 -15 14 0 12 -28 -2 -33 -10 -3 -10 -7 1 -20 11 -14 11 -20
1 -32 -10 -12 -10 -18 0 -30 10 -12 10 -18 -1 -31 -10 -13 -10 -17 2 -24 12
-8 12 -13 0 -32 -10 -16 -10 -23 -2 -26 14 -5 15 -32 1 -32 -5 0 -10 -7 -10
-15 0 -8 5 -15 10 -15 14 0 12 -27 -2 -33 -10 -4 -10 -7 0 -18 6 -7 12 -30 12
-50 l0 -38 -130 -3 c-110 -3 -130 -1 -130 12 -1 8 0 120 0 249 1 180 4 239 15
261 27 52 116 76 173 46z m465 0 c52 -21 92 -98 58 -111 -15 -6 -14 -8 2 -19
19 -14 23 -36 7 -36 -14 0 -12 -28 3 -33 9 -3 7 -10 -6 -25 -18 -20 -18 -21 0
-31 16 -9 16 -12 3 -21 -13 -8 -13 -13 -2 -31 12 -18 11 -23 -5 -34 -17 -13
-17 -14 0 -20 9 -4 17 -13 17 -20 0 -7 -8 -16 -17 -20 -17 -6 -17 -7 1 -21 18
-13 19 -15 2 -33 -16 -18 -16 -20 -1 -28 20 -12 18 -89 -2 -87 -7 1 -67 2
-133 3 l-120 1 0 40 c0 22 5 40 10 40 6 0 10 7 10 15 0 8 -4 15 -10 15 -5 0
-10 7 -10 15 0 8 5 15 10 15 6 0 10 7 10 15 0 8 -4 15 -10 15 -5 0 -10 7 -10
15 0 8 5 15 10 15 6 0 10 7 10 15 0 8 -4 15 -10 15 -14 0 -12 28 3 33 9 3 9 7
-2 20 -11 14 -11 20 -1 32 10 12 10 18 -1 32 -11 13 -11 17 -1 20 14 5 16 33
2 33 -5 0 -10 7 -10 15 0 8 5 15 10 15 14 0 12 28 -2 33 -21 6 17 74 54 97 38
23 85 26 131 6z m478 -9 c46 -31 66 -73 49 -101 -9 -14 -10 -21 -1 -24 6 -2
11 -10 11 -17 0 -7 -5 -15 -11 -17 -8 -3 -8 -10 2 -26 12 -19 12 -24 0 -32
-12 -7 -12 -11 -2 -24 11 -13 11 -19 0 -32 -10 -13 -10 -17 2 -24 12 -8 12
-13 0 -32 -10 -16 -10 -23 -2 -26 14 -5 15 -32 1 -32 -5 0 -10 -7 -10 -15 0
-8 5 -15 10 -15 14 0 12 -27 -2 -33 -10 -4 -10 -7 0 -18 6 -7 12 -31 12 -53
l0 -41 -128 1 -127 2 -3 36 c-2 21 2 44 9 52 10 13 10 17 -2 24 -11 7 -11 14
-3 27 8 13 8 23 0 36 -8 13 -8 20 2 26 12 7 12 12 0 30 -11 18 -11 23 1 31 12
7 12 11 2 24 -11 13 -11 19 0 32 10 13 10 17 -2 24 -12 8 -12 13 -1 31 12 18
12 23 0 30 -10 6 -10 13 -2 26 8 13 8 23 0 36 -25 40 56 117 124 117 22 0 51
-9 71 -23z m470 0 c43 -29 65 -85 40 -104 -15 -11 -15 -12 2 -18 18 -8 24 -35
7 -35 -14 0 -13 -27 1 -32 8 -3 8 -10 -2 -26 -12 -19 -12 -24 0 -32 12 -7 12
-11 2 -24 -11 -13 -11 -19 0 -33 11 -13 11 -17 2 -20 -15 -5 -17 -33 -3 -33
17 0 11 -27 -7 -35 -17 -6 -17 -7 0 -20 16 -11 17 -16 5 -35 -10 -18 -10 -24
0 -27 7 -3 12 -22 12 -44 l0 -39 -125 0 c-69 0 -128 0 -132 0 -14 -1 -15 73
-1 81 11 7 11 12 -1 31 -10 16 -10 23 -2 26 14 5 15 32 1 32 -5 0 -10 7 -10
15 0 8 5 15 10 15 14 0 12 28 -2 33 -10 3 -10 7 1 20 11 14 11 20 1 32 -10 12
-10 18 0 30 10 12 10 18 -1 32 -11 13 -11 17 -1 20 14 5 16 33 2 33 -5 0 -10
7 -10 15 0 8 5 15 10 15 14 0 13 27 -1 32 -8 3 -6 15 4 41 31 73 130 100 198
54z m-3288 -44 c3 -21 6 -148 7 -281 1 -230 0 -243 -17 -240 -17 3 -18 22 -21
281 -2 231 0 277 12 277 8 0 16 -15 19 -37z m87 27 c0 -5 -13 -10 -30 -10 -16
0 -30 5 -30 10 0 6 14 10 30 10 17 0 30 -4 30 -10z m473 -27 c11 -71 9 -529
-2 -518 -7 7 -12 96 -13 225 l-3 215 -205 0 -205 0 -3 -215 c-1 -131 -6 -218
-13 -225 -11 -11 -13 444 -2 518 l6 37 217 0 217 0 6 -37z m87 27 c0 -5 -13
-10 -30 -10 -16 0 -30 5 -30 10 0 6 14 10 30 10 17 0 30 -4 30 -10z m58 -267
c-3 -257 -4 -276 -21 -279 -17 -2 -18 12 -17 239 2 268 6 317 26 317 12 0 14
-46 12 -277z m-628 207 c0 -13 -7 -20 -20 -20 -13 0 -20 7 -20 20 0 13 7 20
20 20 13 0 20 -7 20 -20z m560 0 c0 -13 -7 -20 -20 -20 -19 0 -27 20 -13 33
13 14 33 6 33 -13z m-3340 -66 c0 -8 -4 -12 -10 -9 -5 3 -10 10 -10 16 0 5 5
9 10 9 6 0 10 -7 10 -16z m350 1 c0 -8 -4 -15 -10 -15 -5 0 -10 7 -10 15 0 8
5 15 10 15 6 0 10 -7 10 -15z m70 0 c0 -8 -9 -15 -20 -15 -11 0 -20 7 -20 15
0 8 9 15 20 15 11 0 20 -7 20 -15z m50 0 c0 -8 -4 -15 -10 -15 -5 0 -10 7 -10
15 0 8 5 15 10 15 6 0 10 -7 10 -15z m337 -7 c-3 -8 -6 -5 -6 6 -1 11 2 17 5
13 3 -3 4 -12 1 -19z m73 7 c0 -8 -7 -15 -15 -15 -8 0 -15 7 -15 15 0 8 7 15
15 15 8 0 15 -7 15 -15z m50 -1 c0 -8 -5 -12 -10 -9 -6 4 -8 11 -5 16 9 14 15
11 15 -7z m350 1 c0 -8 -4 -15 -10 -15 -5 0 -10 7 -10 15 0 8 5 15 10 15 6 0
10 -7 10 -15z m70 0 c0 -8 -9 -15 -20 -15 -11 0 -20 7 -20 15 0 8 9 15 20 15
11 0 20 -7 20 -15z m50 0 c0 -8 -4 -15 -10 -15 -5 0 -10 7 -10 15 0 8 5 15 10
15 6 0 10 -7 10 -15z m345 6 c3 -5 1 -12 -5 -16 -5 -3 -10 1 -10 9 0 18 6 21
15 7z m55 0 c0 -6 -4 -13 -10 -16 -5 -3 -10 1 -10 9 0 9 5 16 10 16 6 0 10 -4
10 -9z m980 -205 c0 -174 -3 -215 -14 -219 -8 -3 -17 -3 -20 0 -3 4 -6 102 -6
220 0 206 1 213 20 213 19 0 20 -7 20 -214z m558 -3 c-3 -186 -5 -218 -18
-218 -13 0 -15 32 -18 218 -2 213 -2 217 18 217 20 0 20 -4 18 -217z m962 201
c0 -8 -5 -12 -10 -9 -6 4 -8 11 -5 16 9 14 15 11 15 -7z m47 -6 c-3 -8 -6 -5
-6 6 -1 11 2 17 5 13 3 -3 4 -12 1 -19z m353 7 c0 -8 -4 -15 -10 -15 -5 0 -10
7 -10 15 0 8 5 15 10 15 6 0 10 -7 10 -15z m70 0 c0 -8 -9 -15 -20 -15 -11 0
-20 7 -20 15 0 8 9 15 20 15 11 0 20 -7 20 -15z m50 0 c0 -8 -4 -15 -10 -15
-5 0 -10 7 -10 15 0 8 5 15 10 15 6 0 10 -7 10 -15z m350 6 c0 -6 -4 -13 -10
-16 -5 -3 -10 1 -10 9 0 9 5 16 10 16 6 0 10 -4 10 -9z m60 -6 c0 -8 -7 -15
-15 -15 -8 0 -15 7 -15 15 0 8 7 15 15 15 8 0 15 -7 15 -15z m55 6 c3 -5 1
-12 -5 -16 -5 -3 -10 1 -10 9 0 18 6 21 15 7z m345 -6 c0 -8 -4 -15 -10 -15
-5 0 -10 7 -10 15 0 8 5 15 10 15 6 0 10 -7 10 -15z m70 0 c0 -8 -9 -15 -20
-15 -11 0 -20 7 -20 15 0 8 9 15 20 15 11 0 20 -7 20 -15z m50 0 c0 -8 -4 -15
-10 -15 -5 0 -10 7 -10 15 0 8 5 15 10 15 6 0 10 -7 10 -15z m350 0 c0 -8 -4
-15 -10 -15 -5 0 -10 7 -10 15 0 8 5 15 10 15 6 0 10 -7 10 -15z m-2880 -212
l0 -203 -180 0 -180 0 0 204 0 204 180 -1 180 -1 0 -203z m-3220 151 c0 -8 -4
-12 -10 -9 -5 3 -10 10 -10 16 0 5 5 9 10 9 6 0 10 -7 10 -16z m350 1 c0 -8
-4 -15 -10 -15 -5 0 -10 7 -10 15 0 8 5 15 10 15 6 0 10 -7 10 -15z m68 3 c-3
-7 -11 -13 -18 -13 -7 0 -15 6 -17 13 -3 7 4 12 17 12 13 0 20 -5 18 -12z m52
3 c0 -6 -4 -13 -10 -16 -5 -3 -10 1 -10 9 0 9 5 16 10 16 6 0 10 -4 10 -9z
m337 -13 c-3 -8 -6 -5 -6 6 -1 11 2 17 5 13 3 -3 4 -12 1 -19z m73 7 c0 -8 -7
-15 -15 -15 -8 0 -15 7 -15 15 0 8 7 15 15 15 8 0 15 -7 15 -15z m50 -1 c0 -8
-4 -12 -10 -9 -5 3 -10 10 -10 16 0 5 5 9 10 9 6 0 10 -7 10 -16z m350 0 c0
-8 -4 -12 -10 -9 -5 3 -10 10 -10 16 0 5 5 9 10 9 6 0 10 -7 10 -16z m68 4
c-3 -7 -11 -13 -18 -13 -7 0 -15 6 -17 13 -3 7 4 12 17 12 13 0 20 -5 18 -12z
m52 3 c0 -6 -4 -13 -10 -16 -5 -3 -10 1 -10 9 0 9 5 16 10 16 6 0 10 -4 10 -9z
m350 0 c0 -6 -4 -13 -10 -16 -5 -3 -10 1 -10 9 0 9 5 16 10 16 6 0 10 -4 10
-9z m50 0 c0 -6 -4 -13 -10 -16 -5 -3 -10 1 -10 9 0 9 5 16 10 16 6 0 10 -4
10 -9z m2500 -7 c0 -8 -5 -12 -10 -9 -6 4 -8 11 -5 16 9 14 15 11 15 -7z m47
-6 c-3 -8 -6 -5 -6 6 -1 11 2 17 5 13 3 -3 4 -12 1 -19z m353 6 c0 -8 -4 -12
-10 -9 -5 3 -10 10 -10 16 0 5 5 9 10 9 6 0 10 -7 10 -16z m68 4 c-3 -7 -11
-13 -18 -13 -7 0 -15 6 -17 13 -3 7 4 12 17 12 13 0 20 -5 18 -12z m52 -3 c0
-8 -4 -15 -10 -15 -5 0 -10 7 -10 15 0 8 5 15 10 15 6 0 10 -7 10 -15z m350 6
c0 -6 -4 -13 -10 -16 -5 -3 -10 1 -10 9 0 9 5 16 10 16 6 0 10 -4 10 -9z m60
-6 c0 -9 -6 -12 -15 -9 -8 4 -15 10 -15 15 0 5 7 9 15 9 8 0 15 -7 15 -15z
m60 6 c0 -6 -4 -13 -10 -16 -5 -3 -10 1 -10 9 0 9 5 16 10 16 6 0 10 -4 10 -9z
m340 -7 c0 -8 -4 -12 -10 -9 -5 3 -10 10 -10 16 0 5 5 9 10 9 6 0 10 -7 10
-16z m70 0 c0 -9 -7 -14 -17 -12 -25 5 -28 28 -4 28 12 0 21 -6 21 -16z m50 6
c0 -5 -4 -10 -10 -10 -5 0 -10 5 -10 10 0 6 5 10 10 10 6 0 10 -4 10 -10z
m350 1 c0 -6 -4 -13 -10 -16 -5 -3 -10 1 -10 9 0 9 5 16 10 16 6 0 10 -4 10
-9z m-6100 -61 c0 -5 -4 -10 -10 -10 -5 0 -10 5 -10 10 0 6 5 10 10 10 6 0 10
-4 10 -10z m350 0 c0 -5 -4 -10 -10 -10 -5 0 -10 5 -10 10 0 6 5 10 10 10 6 0
10 -4 10 -10z m70 0 c0 -5 -9 -10 -20 -10 -11 0 -20 5 -20 10 0 6 9 10 20 10
11 0 20 -4 20 -10z m50 0 c0 -5 -4 -10 -10 -10 -5 0 -10 5 -10 10 0 6 5 10 10
10 6 0 10 -4 10 -10z m410 0 c0 -5 -7 -10 -15 -10 -8 0 -15 5 -15 10 0 6 7 10
15 10 8 0 15 -4 15 -10z m50 0 c0 -5 -4 -10 -10 -10 -5 0 -10 5 -10 10 0 6 5
10 10 10 6 0 10 -4 10 -10z m350 0 c0 -5 -4 -10 -10 -10 -5 0 -10 5 -10 10 0
6 5 10 10 10 6 0 10 -4 10 -10z m70 0 c0 -5 -9 -10 -20 -10 -11 0 -20 5 -20
10 0 6 9 10 20 10 11 0 20 -4 20 -10z m50 0 c0 -5 -4 -10 -10 -10 -5 0 -10 5
-10 10 0 6 5 10 10 10 6 0 10 -4 10 -10z m350 0 c0 -5 -4 -10 -10 -10 -5 0
-10 5 -10 10 0 6 5 10 10 10 6 0 10 -4 10 -10z m50 0 c0 -5 -4 -10 -10 -10 -5
0 -10 5 -10 10 0 6 5 10 10 10 6 0 10 -4 10 -10z m2500 0 c0 -5 -4 -10 -10
-10 -5 0 -10 5 -10 10 0 6 5 10 10 10 6 0 10 -4 10 -10z m400 0 c0 -5 -4 -10
-10 -10 -5 0 -10 5 -10 10 0 6 5 10 10 10 6 0 10 -4 10 -10z m70 0 c0 -5 -9
-10 -20 -10 -11 0 -20 5 -20 10 0 6 9 10 20 10 11 0 20 -4 20 -10z m50 0 c0
-5 -4 -10 -10 -10 -5 0 -10 5 -10 10 0 6 5 10 10 10 6 0 10 -4 10 -10z m350 0
c0 -5 -4 -10 -10 -10 -5 0 -10 5 -10 10 0 6 5 10 10 10 6 0 10 -4 10 -10z m60
0 c0 -5 -7 -10 -15 -10 -8 0 -15 5 -15 10 0 6 7 10 15 10 8 0 15 -4 15 -10z
m60 0 c0 -5 -4 -10 -10 -10 -5 0 -10 5 -10 10 0 6 5 10 10 10 6 0 10 -4 10
-10z m340 0 c0 -5 -4 -10 -10 -10 -5 0 -10 5 -10 10 0 6 5 10 10 10 6 0 10 -4
10 -10z m70 0 c0 -5 -9 -10 -20 -10 -11 0 -20 5 -20 10 0 6 9 10 20 10 11 0
20 -4 20 -10z m50 0 c0 -5 -4 -10 -10 -10 -5 0 -10 5 -10 10 0 6 5 10 10 10 6
0 10 -4 10 -10z m350 0 c0 -5 -4 -10 -10 -10 -5 0 -10 5 -10 10 0 6 5 10 10
10 6 0 10 -4 10 -10z m-6104 -67 c-10 -10 -19 5 -10 18 6 11 8 11 12 0 2 -7 1
-15 -2 -18z m354 12 c0 -8 -4 -15 -10 -15 -5 0 -10 7 -10 15 0 8 5 15 10 15 6
0 10 -7 10 -15z m70 -6 c0 -5 -9 -9 -20 -9 -22 0 -27 16 -7 23 15 5 27 -1 27
-14z m50 0 c0 -5 -4 -9 -10 -9 -5 0 -10 7 -10 16 0 8 5 12 10 9 6 -3 10 -10
10 -16z m337 -1 c-3 -8 -6 -5 -6 6 -1 11 2 17 5 13 3 -3 4 -12 1 -19z m73 7
c0 -8 -7 -15 -15 -15 -8 0 -15 7 -15 15 0 8 7 15 15 15 8 0 15 -7 15 -15z m50
-1 c0 -8 -5 -12 -10 -9 -6 4 -8 11 -5 16 9 14 15 11 15 -7z m346 -11 c-10 -10
-19 5 -10 18 6 11 8 11 12 0 2 -7 1 -15 -2 -18z m72 9 c2 -7 -6 -12 -17 -12
-21 0 -27 11 -14 24 9 9 26 2 31 -12z m402 -3 c0 -5 -4 -9 -10 -9 -5 0 -10 7
-10 16 0 8 5 12 10 9 6 -3 10 -10 10 -16z m50 0 c0 -5 -4 -9 -10 -9 -5 0 -10
7 -10 16 0 8 5 12 10 9 6 -3 10 -10 10 -16z m2496 -6 c-10 -10 -19 5 -10 18 6
11 8 11 12 0 2 -7 1 -15 -2 -18z m51 5 c-3 -8 -6 -5 -6 6 -1 11 2 17 5 13 3
-3 4 -12 1 -19z m349 -5 c-10 -10 -19 5 -10 18 6 11 8 11 12 0 2 -7 1 -15 -2
-18z m72 9 c2 -7 -6 -12 -17 -12 -21 0 -27 11 -14 24 9 9 26 2 31 -12z m52 -3
c0 -5 -4 -9 -10 -9 -5 0 -10 7 -10 16 0 8 5 12 10 9 6 -3 10 -10 10 -16z m350
0 c0 -5 -4 -9 -10 -9 -5 0 -10 7 -10 16 0 8 5 12 10 9 6 -3 10 -10 10 -16z
m60 4 c0 -7 -7 -13 -15 -13 -8 0 -15 6 -15 13 0 8 7 14 15 14 8 0 15 -6 15
-14z m60 -4 c0 -5 -4 -9 -10 -9 -5 0 -10 7 -10 16 0 8 5 12 10 9 6 -3 10 -10
10 -16z m336 -6 c-10 -10 -19 5 -10 18 6 11 8 11 12 0 2 -7 1 -15 -2 -18z m74
12 c0 -8 -9 -15 -20 -15 -20 0 -26 11 -13 23 12 13 33 7 33 -8z m46 -12 c-10
-10 -19 5 -10 18 6 11 8 11 12 0 2 -7 1 -15 -2 -18z m354 6 c0 -5 -4 -9 -10
-9 -5 0 -10 7 -10 16 0 8 5 12 10 9 6 -3 10 -10 10 -16z m-4700 1 c0 -5 -4
-10 -10 -10 -5 0 -10 5 -10 10 0 6 5 10 10 10 6 0 10 -4 10 -10z m-1400 -55
c0 -8 -4 -15 -10 -15 -5 0 -10 7 -10 15 0 8 5 15 10 15 6 0 10 -7 10 -15z
m350 0 c0 -8 -4 -15 -10 -15 -5 0 -10 7 -10 15 0 8 5 15 10 15 6 0 10 -7 10
-15z m70 0 c0 -8 -9 -15 -20 -15 -11 0 -20 7 -20 15 0 8 9 15 20 15 11 0 20
-7 20 -15z m50 0 c0 -8 -4 -15 -10 -15 -5 0 -10 7 -10 15 0 8 5 15 10 15 6 0
10 -7 10 -15z m337 -7 c-3 -8 -6 -5 -6 6 -1 11 2 17 5 13 3 -3 4 -12 1 -19z
m73 7 c0 -8 -6 -15 -14 -15 -17 0 -28 14 -19 24 12 12 33 6 33 -9z m50 -1 c0
-8 -5 -12 -10 -9 -6 4 -8 11 -5 16 9 14 15 11 15 -7z m350 1 c0 -8 -4 -15 -10
-15 -5 0 -10 7 -10 15 0 8 5 15 10 15 6 0 10 -7 10 -15z m70 0 c0 -8 -9 -15
-20 -15 -11 0 -20 7 -20 15 0 8 9 15 20 15 11 0 20 -7 20 -15z m50 0 c0 -8 -4
-15 -10 -15 -5 0 -10 7 -10 15 0 8 5 15 10 15 6 0 10 -7 10 -15z m350 -6 c0
-5 -4 -9 -10 -9 -5 0 -10 7 -10 16 0 8 5 12 10 9 6 -3 10 -10 10 -16z m50 6
c0 -8 -4 -15 -10 -15 -5 0 -10 7 -10 15 0 8 5 15 10 15 6 0 10 -7 10 -15z
m2500 -1 c0 -8 -4 -12 -10 -9 -5 3 -10 10 -10 16 0 5 5 9 10 9 6 0 10 -7 10
-16z m47 -6 c-3 -8 -6 -5 -6 6 -1 11 2 17 5 13 3 -3 4 -12 1 -19z m353 7 c0
-8 -4 -15 -10 -15 -5 0 -10 7 -10 15 0 8 5 15 10 15 6 0 10 -7 10 -15z m70 0
c0 -8 -9 -15 -20 -15 -11 0 -20 7 -20 15 0 8 9 15 20 15 11 0 20 -7 20 -15z
m50 0 c0 -8 -4 -15 -10 -15 -5 0 -10 7 -10 15 0 8 5 15 10 15 6 0 10 -7 10
-15z m350 0 c0 -8 -4 -15 -10 -15 -5 0 -10 7 -10 15 0 8 5 15 10 15 6 0 10 -7
10 -15z m60 0 c0 -8 -7 -15 -15 -15 -8 0 -15 7 -15 15 0 8 7 15 15 15 8 0 15
-7 15 -15z m55 6 c3 -5 1 -12 -5 -16 -5 -3 -10 1 -10 9 0 18 6 21 15 7z m345
-6 c0 -8 -4 -15 -10 -15 -5 0 -10 7 -10 15 0 8 5 15 10 15 6 0 10 -7 10 -15z
m70 0 c0 -8 -9 -15 -20 -15 -11 0 -20 7 -20 15 0 8 9 15 20 15 11 0 20 -7 20
-15z m50 0 c0 -8 -4 -15 -10 -15 -5 0 -10 7 -10 15 0 8 5 15 10 15 6 0 10 -7
10 -15z m350 0 c0 -8 -4 -15 -10 -15 -5 0 -10 7 -10 15 0 8 5 15 10 15 6 0 10
-7 10 -15z m-6100 -61 c0 -8 -4 -12 -10 -9 -5 3 -10 10 -10 16 0 5 5 9 10 9 6
0 10 -7 10 -16z m350 1 c0 -8 -4 -15 -10 -15 -5 0 -10 7 -10 15 0 8 5 15 10
15 6 0 10 -7 10 -15z m68 3 c-7 -19 -38 -22 -38 -4 0 10 9 16 21 16 12 0 19
-5 17 -12z m52 -3 c0 -8 -4 -15 -10 -15 -5 0 -10 7 -10 15 0 8 5 15 10 15 6 0
10 -7 10 -15z m345 6 c3 -5 1 -12 -5 -16 -5 -3 -10 1 -10 9 0 18 6 21 15 7z
m65 -4 c0 -8 -7 -14 -15 -14 -8 0 -15 6 -15 14 0 7 7 13 15 13 8 0 15 -6 15
-13z m50 -3 c0 -8 -5 -12 -10 -9 -6 4 -8 11 -5 16 9 14 15 11 15 -7z m350 1
c0 -8 -4 -15 -10 -15 -5 0 -10 7 -10 15 0 8 5 15 10 15 6 0 10 -7 10 -15z m70
-1 c0 -9 -7 -14 -17 -12 -25 5 -28 28 -4 28 12 0 21 -6 21 -16z m50 7 c0 -6
-4 -13 -10 -16 -5 -3 -10 1 -10 9 0 9 5 16 10 16 6 0 10 -4 10 -9z m350 0 c0
-6 -4 -13 -10 -16 -5 -3 -10 1 -10 9 0 9 5 16 10 16 6 0 10 -4 10 -9z m50 0
c0 -6 -4 -13 -10 -16 -5 -3 -10 1 -10 9 0 9 5 16 10 16 6 0 10 -4 10 -9z
m2500 -7 c0 -8 -4 -12 -10 -9 -5 3 -10 10 -10 16 0 5 5 9 10 9 6 0 10 -7 10
-16z m50 0 c0 -8 -5 -12 -10 -9 -6 4 -8 11 -5 16 9 14 15 11 15 -7z m350 0 c0
-8 -4 -12 -10 -9 -5 3 -10 10 -10 16 0 5 5 9 10 9 6 0 10 -7 10 -16z m70 0 c0
-9 -7 -14 -17 -12 -25 5 -28 28 -4 28 12 0 21 -6 21 -16z m50 1 c0 -8 -4 -15
-10 -15 -5 0 -10 7 -10 15 0 8 5 15 10 15 6 0 10 -7 10 -15z m350 6 c0 -6 -4
-13 -10 -16 -5 -3 -10 1 -10 9 0 9 5 16 10 16 6 0 10 -4 10 -9z m63 -6 c1 -5
-6 -11 -15 -13 -11 -2 -18 3 -18 13 0 17 30 18 33 0z m51 -6 c-3 -5 -10 -7
-15 -3 -5 3 -7 10 -3 15 3 5 10 7 15 3 5 -3 7 -10 3 -15z m346 5 c0 -8 -4 -12
-10 -9 -5 3 -10 10 -10 16 0 5 5 9 10 9 6 0 10 -7 10 -16z m70 0 c0 -9 -7 -14
-17 -12 -25 5 -28 28 -4 28 12 0 21 -6 21 -16z m50 1 c0 -8 -4 -15 -10 -15 -5
0 -10 7 -10 15 0 8 5 15 10 15 6 0 10 -7 10 -15z m350 6 c0 -6 -4 -13 -10 -16
-5 -3 -10 1 -10 9 0 9 5 16 10 16 6 0 10 -4 10 -9z m-6100 -97 c0 -27 -4 -43
-10 -39 -5 3 -10 24 -10 46 0 21 5 39 10 39 6 0 10 -21 10 -46z m350 0 c0 -27
-4 -43 -10 -39 -5 3 -10 24 -10 46 0 21 5 39 10 39 6 0 10 -21 10 -46z m70 8
c0 -43 -6 -53 -26 -45 -9 3 -14 20 -14 44 0 32 3 39 20 39 17 0 20 -7 20 -38z
m50 -1 c0 -22 -4 -43 -10 -46 -6 -4 -10 12 -10 39 0 25 5 46 10 46 6 0 10 -18
10 -39z m337 -28 c-2 -16 -4 -5 -4 22 0 28 2 40 4 28 2 -13 2 -35 0 -50z m73
24 c0 -32 -4 -44 -15 -44 -11 0 -15 12 -15 44 0 32 4 43 15 43 11 0 15 -11 15
-43z m50 -4 c0 -25 -3 -43 -7 -39 -5 4 -8 25 -8 47 0 21 3 39 8 39 4 0 7 -21
7 -47z m350 7 c0 -22 -4 -40 -10 -40 -5 0 -10 18 -10 40 0 22 5 40 10 40 6 0
10 -18 10 -40z m68 -2 c-2 -30 -8 -43 -18 -43 -10 0 -16 13 -18 43 -3 37 -1
42 18 42 19 0 21 -5 18 -42z m52 3 c0 -22 -4 -43 -10 -46 -6 -4 -10 12 -10 39
0 25 5 46 10 46 6 0 10 -18 10 -39z m350 0 c0 -22 -4 -43 -10 -46 -6 -4 -10
12 -10 39 0 25 5 46 10 46 6 0 10 -18 10 -39z m50 0 c0 -22 -4 -43 -10 -46 -6
-4 -10 12 -10 39 0 25 5 46 10 46 6 0 10 -18 10 -39z m2500 -7 c0 -27 -4 -43
-10 -39 -5 3 -10 24 -10 46 0 21 5 39 10 39 6 0 10 -21 10 -46z m47 -21 c-2
-16 -4 -5 -4 22 0 28 2 40 4 28 2 -13 2 -35 0 -50z m353 21 c0 -27 -4 -43 -10
-39 -5 3 -10 24 -10 46 0 21 5 39 10 39 6 0 10 -21 10 -46z m70 7 c0 -24 -5
-41 -14 -44 -20 -8 -26 2 -26 45 0 31 3 38 20 38 17 0 20 -7 20 -39z m50 -6
c0 -25 -4 -45 -10 -45 -5 0 -10 20 -10 45 0 25 5 45 10 45 6 0 10 -20 10 -45z
m350 6 c0 -22 -4 -43 -10 -46 -6 -4 -10 12 -10 39 0 25 5 46 10 46 6 0 10 -18
10 -39z m60 -4 c0 -32 -4 -44 -15 -44 -11 0 -15 12 -15 44 0 32 4 43 15 43 11
0 15 -11 15 -43z m57 3 c-5 -57 -17 -62 -17 -7 0 26 5 47 11 47 6 0 8 -16 6
-40z m343 0 c0 -22 -4 -40 -10 -40 -5 0 -10 18 -10 40 0 22 5 40 10 40 6 0 10
-18 10 -40z m70 -4 c0 -36 -3 -44 -17 -42 -13 2 -19 14 -21 44 -3 37 -1 42 17
42 18 0 21 -6 21 -44z m50 4 c0 -22 -4 -40 -10 -40 -5 0 -10 18 -10 40 0 22 5
40 10 40 6 0 10 -18 10 -40z m350 1 c0 -22 -4 -43 -10 -46 -6 -4 -10 12 -10
39 0 25 5 46 10 46 6 0 10 -18 10 -39z m-3900 -11 l0 -30 -75 -1 c-41 -1 -85
-2 -97 -2 -17 -1 -22 5 -24 31 l-2 32 99 0 99 0 0 -30z m1878 -2 c-2 -18 -6
-32 -10 -30 -5 1 -48 2 -98 2 l-90 0 0 30 0 30 101 0 100 0 -3 -32z"/>
<path d="M3993 4197 c-3 -5 -2 -11 1 -15 12 -11 471 -4 471 8 0 13 -464 20
-472 7z"/>
<path d="M4190 3770 l0 -80 40 0 40 0 0 80 0 80 -40 0 -40 0 0 -80z m50 0 c0
-27 -4 -50 -10 -50 -5 0 -10 23 -10 50 0 28 5 50 10 50 6 0 10 -22 10 -50z"/>
<path d="M4195 3462 c-3 -3 -5 -41 -5 -84 l0 -78 40 0 41 0 -3 82 -3 83 -32 1
c-18 1 -35 -1 -38 -4z m45 -82 c0 -27 -4 -50 -10 -50 -5 0 -10 23 -10 50 0 28
5 50 10 50 6 0 10 -22 10 -50z"/>
<path d="M4197 3073 c-4 -3 -7 -42 -7 -85 l0 -78 39 0 c22 0 41 4 43 10 2 5 2
43 0 85 l-4 75 -32 0 c-18 0 -36 -3 -39 -7z m43 -78 c0 -30 -4 -55 -10 -55 -5
0 -10 25 -10 55 0 30 5 55 10 55 6 0 10 -25 10 -55z"/>
<path d="M3284 3079 c-17 -19 -19 -38 -19 -168 l0 -146 65 0 65 0 0 146 c0
130 -2 149 -19 168 -11 12 -31 21 -46 21 -15 0 -35 -9 -46 -21z m76 -35 c6
-14 10 -77 10 -140 l0 -115 -37 3 -38 3 0 120 c0 66 3 128 7 138 11 26 47 21
58 -9z"/>
<path d="M5084 3079 c-17 -19 -19 -38 -19 -168 l0 -146 65 0 65 0 0 146 c0
130 -2 149 -19 168 -11 12 -31 21 -46 21 -15 0 -35 -9 -46 -21z m76 -35 c6
-14 10 -77 10 -140 l0 -114 -41 0 -41 0 4 128 c1 70 7 133 11 140 14 21 47 14
57 -14z"/>
<path d="M3978 2622 c-220 -140 -275 -182 -236 -182 6 0 113 64 237 143 124
79 232 147 239 151 14 8 14 8 288 -166 111 -70 207 -128 213 -128 38 0 -17 43
-238 183 -137 86 -250 157 -252 156 -2 0 -115 -71 -251 -157z"/>
<path d="M4146 2615 c6 -44 6 -45 -21 -45 -21 0 -25 -4 -21 -17 4 -14 -5 -22
-42 -38 -66 -27 -134 -98 -163 -171 l-24 -59 0 -540 0 -540 355 0 355 0 3 505
c2 346 -1 524 -8 565 -22 114 -90 202 -186 242 -33 14 -42 22 -38 36 4 13 0
17 -21 17 -25 0 -26 1 -19 45 l6 45 -91 0 -92 0 7 -45z m140 -2 c-19 -62 -36
-156 -36 -200 0 -45 -3 -53 -19 -53 -16 0 -19 11 -24 83 -3 45 -10 93 -15 107
-5 14 -12 37 -16 53 l-6 27 60 0 c54 0 61 -2 56 -17z m-115 -99 c10 -43 18
-126 11 -119 -4 3 -12 32 -18 63 -7 31 -16 65 -20 76 -5 13 -3 17 6 14 8 -2
17 -18 21 -34z m144 19 c-3 -10 -11 -43 -17 -73 -11 -58 -32 -97 -24 -45 3 17
8 50 11 74 6 50 11 61 27 61 6 0 7 -8 3 -17z m-175 -90 c6 -32 13 -64 15 -70
3 -7 -3 -13 -12 -13 -26 0 -97 -82 -111 -127 -8 -27 -12 -120 -12 -281 l0
-241 -37 -3 c-26 -2 -38 -8 -38 -18 0 -12 40 -15 277 -15 153 -1 283 2 289 6
20 12 -1 29 -37 29 l-34 0 0 243 c0 196 -3 253 -16 290 -17 50 -65 104 -100
113 -21 5 -21 7 -7 72 7 36 15 68 18 70 19 20 128 -51 166 -108 52 -77 54 -96
54 -490 l0 -365 -37 -3 c-22 -2 -38 1 -38 7 0 6 9 11 20 11 11 0 20 5 20 11 0
6 -9 13 -20 16 -14 4 -20 14 -20 34 0 24 -15 47 -25 38 -2 -2 -5 -28 -7 -58
-6 -78 -28 -80 -28 -2 0 48 -3 61 -15 61 -12 0 -15 -13 -15 -60 0 -47 -3 -60
-15 -60 -12 0 -15 13 -15 60 0 47 -3 60 -15 60 -12 0 -15 -13 -15 -61 0 -81
-24 -77 -28 5 -4 76 -26 71 -30 -7 -4 -74 -20 -74 -24 1 -2 41 -7 57 -17 57
-10 0 -14 -15 -15 -54 -1 -34 -6 -56 -13 -58 -10 -4 -13 12 -13 56 0 48 -3 61
-15 61 -12 0 -15 -13 -15 -60 0 -47 -3 -60 -15 -60 -12 0 -15 13 -15 60 0 47
-3 60 -15 60 -12 0 -15 -13 -15 -61 0 -81 -24 -77 -28 5 -4 76 -26 71 -30 -7
-4 -74 -20 -74 -24 1 -2 43 -7 57 -18 57 -10 0 -16 -12 -18 -31 -2 -22 -9 -34
-23 -37 -25 -7 -25 -27 1 -27 11 0 20 -5 20 -11 0 -6 -16 -9 -37 -7 l-38 3 0
365 c0 332 2 370 19 419 21 61 81 133 135 161 59 31 68 27 81 -37z m80 -144
c0 -48 -65 -106 -122 -110 -49 -4 -51 6 -17 73 24 48 54 68 101 68 36 0 38 -2
38 -31z m134 -2 c17 -19 37 -50 43 -70 l11 -37 -45 0 c-38 0 -49 5 -79 36 -25
27 -34 46 -34 70 0 32 2 34 36 34 29 0 44 -7 68 -33z m-64 -147 c0 -12 -12
-26 -30 -35 -27 -14 -33 -14 -60 0 -39 20 -39 48 1 88 l31 31 29 -32 c16 -18
29 -41 29 -52z m-150 -145 l0 -145 -45 0 -45 0 0 145 0 145 45 0 45 0 0 -145z
m270 0 l0 -145 -45 0 -46 0 2 145 1 145 44 0 44 0 0 -145z m-207 70 c12 -11
15 -40 15 -115 0 -99 0 -100 -24 -100 -24 0 -24 0 -24 115 0 64 4 115 9 115 5
0 16 -7 24 -15z m87 -100 c0 -108 -1 -115 -20 -115 -19 0 -20 7 -20 109 0 106
3 117 33 120 4 1 7 -51 7 -114z m-150 -205 l0 -60 -45 0 -45 0 0 60 0 60 45 0
45 0 0 -60z m150 0 l0 -60 -60 0 -60 0 0 60 0 60 60 0 60 0 0 -60z m120 0 l0
-60 -45 0 -45 0 0 53 c0 30 3 57 7 60 3 4 24 7 45 7 l38 0 0 -60z m-470 -406
c0 -124 -2 -135 -17 -132 -16 3 -18 19 -21 136 -2 127 -2 132 18 132 19 0 20
-6 20 -136z m80 106 c0 -25 -4 -30 -25 -30 -21 0 -25 5 -25 30 0 25 4 30 25
30 21 0 25 -5 25 -30z m392 -12 c3 -42 4 -43 41 -46 l37 -3 0 -90 0 -89 -260
0 -260 0 0 90 0 90 40 0 40 0 0 45 0 45 179 0 180 0 3 -42z m78 12 c0 -25 -4
-30 -25 -30 -21 0 -25 5 -25 30 0 25 4 30 25 30 21 0 25 -5 25 -30z m70 -105
c0 -128 -1 -135 -20 -135 -19 0 -20 7 -20 135 0 128 1 135 20 135 19 0 20 -7
20 -135z"/>
<path d="M4020 1285 c0 -13 30 -15 210 -15 180 0 210 2 210 15 0 13 -30 15
-210 15 -180 0 -210 -2 -210 -15z"/>
<path d="M3140 1675 c0 -516 0 -524 -20 -535 -43 -23 -4 -30 171 -30 152 0
179 2 179 15 0 8 -4 15 -10 15 -7 0 -10 183 -10 530 l0 530 -155 0 -155 0 0
-525z m280 275 c0 -188 -2 -220 -15 -220 -12 0 -15 32 -17 203 l-3 202 -92 3
-93 3 0 -206 c0 -176 -2 -205 -15 -205 -13 0 -15 31 -15 220 l0 220 125 0 125
0 0 -220z m-60 105 l0 -55 -65 0 -65 0 0 55 0 55 65 0 65 0 0 -55z m0 -205 l0
-120 -65 0 -65 0 0 120 0 120 65 0 65 0 0 -120z m-12 -157 c-26 -2 -71 -2
-100 0 -29 2 -8 3 47 3 55 0 79 -1 53 -3z m72 -274 c0 -171 -3 -258 -10 -254
-6 4 -10 100 -10 254 0 218 3 261 17 261 2 0 3 -117 3 -261z m-230 2 c0 -156
-4 -252 -10 -256 -7 -4 -10 82 -10 249 0 164 4 256 10 256 6 0 10 -90 10 -249z
m178 2 c2 -160 -1 -233 -8 -233 -6 0 -24 7 -40 15 -25 13 -32 13 -57 0 -15 -8
-31 -15 -35 -15 -5 0 -8 106 -8 235 l0 236 73 -3 72 -3 3 -232z m-28 -263 l35
-19 -85 0 -85 1 40 19 c49 23 52 23 95 -1z"/>
<path d="M3150 916 c0 -148 -2 -175 -16 -180 -8 -3 -12 -10 -9 -16 4 -6 71
-10 171 -10 139 0 164 2 164 15 0 8 -4 15 -10 15 -6 0 -11 69 -12 173 l-3 172
-142 3 -143 3 0 -175z m60 -16 c0 -136 -2 -160 -15 -160 -13 0 -15 24 -15 160
0 136 2 160 15 160 13 0 15 -24 15 -160z m140 110 l0 -50 -55 0 -55 0 0 50 0
50 55 0 55 0 0 -50z m57 -113 c1 -130 -1 -157 -13 -157 -11 0 -14 28 -14 161
0 124 3 160 13 156 9 -3 12 -45 14 -160z m-57 -62 l0 -95 -55 0 -55 0 0 95 0
95 55 0 55 0 0 -95z"/>
<path d="M5010 1670 c0 -347 -3 -530 -10 -530 -5 0 -10 -7 -10 -15 0 -13 27
-15 179 -15 175 0 214 7 171 30 -20 11 -20 19 -20 535 l0 525 -155 0 -155 0 0
-530z m280 280 c0 -188 -2 -220 -15 -220 -13 0 -15 29 -13 203 l2 202 -95 0
-94 0 -3 -202 c-2 -171 -5 -203 -17 -203 -13 0 -15 32 -15 220 l0 220 125 0
125 0 0 -220z m-60 105 l0 -55 -65 0 -65 0 0 55 0 55 65 0 65 0 0 -55z m0
-205 l0 -120 -65 0 -65 0 0 120 0 120 65 0 65 0 0 -120z m-12 -157 c-26 -2
-71 -2 -100 0 -29 2 -8 3 47 3 55 0 79 -1 53 -3z m-158 -279 c0 -163 -4 -254
-10 -254 -6 0 -10 94 -10 261 0 171 3 258 10 254 6 -4 10 -102 10 -261z m230
6 c0 -160 -4 -250 -10 -250 -6 0 -10 88 -10 243 0 215 3 257 17 257 2 0 3
-112 3 -250z m-50 5 c0 -129 -2 -235 -5 -235 -4 0 -19 7 -35 15 -27 14 -33 14
-60 0 -16 -8 -34 -15 -40 -15 -7 0 -10 78 -10 235 l0 235 75 0 75 0 0 -235z
m-20 -265 l45 -19 -90 0 -90 0 35 19 c43 23 44 23 100 0z"/>
<path d="M5027 1083 c-4 -3 -7 -82 -7 -175 0 -105 -4 -168 -10 -168 -5 0 -10
-7 -10 -15 0 -13 25 -15 164 -15 100 0 167 4 171 10 3 6 -1 13 -9 16 -14 5
-16 32 -16 180 l0 174 -138 0 c-76 0 -142 -3 -145 -7z m53 -183 c0 -132 -3
-160 -14 -160 -12 0 -14 26 -15 143 0 145 3 177 20 177 5 0 9 -68 9 -160z
m140 110 l0 -50 -49 0 c-39 0 -51 4 -55 18 -4 13 -2 59 3 80 1 1 24 2 51 2
l50 0 0 -50z m60 -110 c0 -136 -2 -160 -15 -160 -13 0 -15 24 -15 160 0 136 2
160 15 160 13 0 15 -24 15 -160z m-60 -65 l0 -95 -52 0 -53 0 2 92 c1 51 2 94
2 96 1 1 24 2 51 2 l50 0 0 -95z"/>
<path d="M1217 2103 c-4 -3 -7 -93 -7 -199 0 -124 -4 -195 -11 -199 -5 -4 -9
-11 -7 -17 4 -10 327 -12 338 -2 2 3 -3 10 -13 15 -15 9 -17 30 -17 209 l0
200 -138 0 c-76 0 -142 -3 -145 -7z m253 -208 c0 -158 -2 -185 -15 -185 -13 0
-15 26 -15 175 l0 176 -82 -3 -83 -3 -3 -172 c-2 -145 -5 -173 -17 -173 -13 0
-15 29 -15 185 l0 185 115 0 115 0 0 -185z m-60 84 l0 -50 -52 3 -53 3 -3 48
-3 47 55 0 56 0 0 -51z m0 -174 l0 -95 -55 0 -55 0 0 95 0 95 55 0 55 0 0 -95z"/>
<path d="M1680 1911 c0 -172 -2 -200 -16 -205 -9 -3 -14 -11 -12 -17 3 -10
326 -14 337 -4 2 3 -1 11 -7 18 -8 9 -13 83 -14 208 l-3 194 -142 3 -143 3 0
-200z m250 -16 c0 -114 -4 -185 -10 -185 -6 0 -11 69 -12 173 l-3 172 -82 3
-83 3 0 -176 c0 -149 -2 -175 -15 -175 -13 0 -15 27 -15 185 l0 185 110 0 110
0 0 -185z m-54 88 l-1 -48 -52 -3 -53 -3 0 50 0 51 54 0 53 0 -1 -47z m3 -178
l2 -95 -56 0 -55 0 0 95 0 95 54 0 54 0 1 -95z"/>
<path d="M2147 2103 c-4 -3 -7 -93 -7 -199 0 -124 -4 -195 -11 -199 -5 -4 -9
-11 -7 -17 4 -10 327 -12 338 -2 3 3 -3 11 -13 18 -15 12 -17 34 -17 210 l0
196 -138 0 c-76 0 -142 -3 -145 -7z m253 -208 c0 -158 -2 -185 -15 -185 -13 0
-15 26 -15 175 l0 176 -82 -3 -83 -3 -3 -173 c-2 -122 -6 -172 -14 -170 -10 4
-20 325 -10 356 3 8 35 12 113 12 l109 0 0 -185z m-60 84 l0 -50 -52 3 -53 3
-3 48 -3 47 55 0 56 0 0 -51z m0 -174 l0 -95 -55 0 -55 0 0 95 0 95 55 0 55 0
0 -95z"/>
<path d="M2610 1914 c0 -176 -2 -198 -17 -210 -10 -7 -16 -15 -13 -18 8 -7
330 -9 337 -2 3 3 1 12 -5 19 -8 9 -13 83 -14 208 l-3 194 -142 3 -143 3 0
-197z m258 -21 c2 -157 0 -183 -13 -183 -12 0 -15 27 -17 173 l-3 172 -82 3
-83 3 0 -176 c0 -149 -2 -175 -15 -175 -13 0 -15 27 -15 185 l0 186 113 -3
112 -3 3 -182z m-60 90 l-3 -48 -52 -3 -53 -3 0 50 0 51 56 0 55 0 -3 -47z m0
-180 l3 -93 -55 0 -56 0 0 96 0 95 53 -3 52 -3 3 -92z"/>
<path d="M5566 2101 c-3 -4 -5 -92 -5 -195 1 -135 -3 -191 -11 -202 -7 -8 -10
-17 -7 -20 7 -7 329 -5 337 2 3 3 -3 11 -13 18 -15 12 -17 34 -17 210 l0 196
-139 0 c-77 0 -142 -4 -145 -9z m254 -206 c0 -158 -2 -185 -15 -185 -13 0 -15
26 -15 175 l0 176 -82 -3 -83 -3 -3 -172 c-1 -104 -6 -173 -12 -173 -6 0 -10
71 -10 185 l0 185 110 0 110 0 0 -185z m-60 84 l0 -50 -52 3 -52 3 -1 48 -2
47 54 0 53 0 0 -51z m0 -174 l0 -95 -55 0 -55 0 0 95 0 95 55 0 55 0 0 -95z"/>
<path d="M6030 1910 c0 -169 -2 -202 -15 -206 -8 -4 -12 -10 -9 -15 6 -11 334
-12 334 -1 0 4 -4 12 -10 18 -5 5 -11 95 -12 204 l-3 195 -142 3 -143 3 0
-201z m260 -15 c0 -156 -2 -185 -15 -185 -12 0 -15 28 -17 173 l-3 172 -82 3
-83 3 0 -176 c0 -149 -2 -175 -15 -175 -13 0 -15 27 -15 185 l0 185 115 0 115
0 0 -185z m-62 88 l-3 -48 -52 -3 -53 -3 0 50 0 51 56 0 55 0 -3 -47z m2 -178
l0 -95 -55 0 -55 0 0 95 0 95 55 0 55 0 0 -95z"/>
<path d="M6497 2103 c-4 -3 -7 -93 -7 -199 0 -124 -4 -195 -11 -199 -5 -4 -9
-11 -7 -16 5 -14 332 -13 336 0 2 6 -3 14 -12 17 -14 5 -16 33 -16 205 l0 199
-138 0 c-76 0 -142 -3 -145 -7z m253 -208 c0 -158 -2 -185 -15 -185 -13 0 -15
26 -15 175 l0 176 -82 -3 -83 -3 0 -173 c0 -131 -3 -172 -12 -172 -10 0 -13
44 -13 185 l0 185 110 0 110 0 0 -185z m-60 85 l0 -50 -50 0 -50 0 0 50 0 50
50 0 50 0 0 -50z m0 -175 l0 -95 -50 0 -50 0 0 95 0 95 50 0 50 0 0 -95z"/>
<path d="M6960 1912 c0 -139 -4 -202 -12 -210 -6 -6 -10 -14 -7 -16 7 -7 319
-9 326 -2 3 3 1 12 -5 19 -8 9 -13 83 -14 208 l-3 194 -142 3 -143 3 0 -199z
m260 -17 c0 -156 -2 -185 -15 -185 -12 0 -15 28 -17 173 l-3 172 -82 3 -83 3
0 -176 c0 -149 -2 -175 -15 -175 -13 0 -15 27 -15 185 l0 185 115 0 115 0 0
-185z m-60 85 l0 -50 -55 0 -55 0 0 50 0 50 55 0 55 0 0 -50z m0 -175 l0 -95
-55 0 -55 0 0 95 0 95 55 0 55 0 0 -95z"/>
<path d="M1200 1650 c0 -6 7 -13 15 -16 10 -4 15 -20 15 -50 l0 -44 130 0 130
0 0 45 c0 25 5 45 10 45 6 0 10 7 10 15 0 13 -24 15 -155 15 -100 0 -155 -4
-155 -10z m260 -50 l0 -30 -100 0 -100 0 0 30 0 30 100 0 100 0 0 -30z"/>
<path d="M1670 1645 c0 -8 5 -15 10 -15 6 0 10 -20 10 -45 l0 -45 130 0 130 0
0 44 c0 30 5 46 15 50 8 3 15 10 15 16 0 6 -55 10 -155 10 -131 0 -155 -2
-155 -15z m250 -45 l0 -30 -100 0 -100 0 0 30 0 30 100 0 100 0 0 -30z"/>
<path d="M2130 1650 c0 -6 7 -13 15 -16 10 -4 15 -20 15 -50 l0 -44 130 0 130
0 0 45 c0 25 5 45 10 45 6 0 10 7 10 15 0 13 -24 15 -155 15 -100 0 -155 -4
-155 -10z m260 -50 l0 -30 -100 0 -100 0 0 30 0 30 100 0 100 0 0 -30z"/>
<path d="M2600 1645 c0 -8 5 -15 10 -15 6 0 10 -20 10 -45 l0 -45 130 0 130 0
0 44 c0 30 5 46 15 50 8 3 15 10 15 16 0 6 -55 10 -155 10 -131 0 -155 -2
-155 -15z m250 -45 l0 -30 -100 0 -100 0 0 30 0 30 100 0 100 0 0 -30z"/>
<path d="M5550 1650 c0 -6 7 -13 15 -16 10 -4 15 -20 15 -50 l0 -44 130 0 130
0 0 45 c0 25 5 45 10 45 6 0 10 7 10 15 0 13 -24 15 -155 15 -100 0 -155 -4
-155 -10z m260 -50 l0 -30 -100 0 -100 0 0 30 0 30 100 0 100 0 0 -30z"/>
<path d="M6020 1645 c0 -8 5 -15 10 -15 6 0 10 -20 10 -45 l0 -45 130 0 130 0
0 44 c0 30 5 46 15 50 8 3 15 10 15 16 0 6 -55 10 -155 10 -131 0 -155 -2
-155 -15z m250 -45 l0 -30 -100 0 -100 0 0 30 0 30 100 0 100 0 0 -30z"/>
<path d="M6480 1650 c0 -6 7 -13 15 -16 10 -4 15 -20 15 -50 l0 -44 130 0 130
0 0 45 c0 25 5 45 10 45 6 0 10 7 10 15 0 13 -24 15 -155 15 -100 0 -155 -4
-155 -10z m260 -50 l0 -30 -100 0 -100 0 0 30 0 30 100 0 100 0 0 -30z"/>
<path d="M6950 1652 c0 -4 4 -12 9 -17 5 -6 11 -28 13 -50 l3 -40 130 0 130 0
3 40 c2 22 8 44 13 50 5 5 9 13 9 17 0 4 -70 8 -155 8 -85 0 -155 -4 -155 -8z
m250 -52 l0 -30 -95 0 -95 0 0 30 0 30 95 0 95 0 0 -30z"/>
<path d="M1577 494 c-4 -4 -4 -11 -1 -15 3 -5 1188 -9 2660 -9 2120 0 2655 3
2652 13 -4 9 -545 13 -2655 15 -1457 1 -2653 -1 -2656 -4z"/>
<path d="M2512 388 c4 -10 359 -14 1721 -16 1522 -2 1717 0 1717 13 0 13 -196
15 -1721 15 -1372 0 -1720 -3 -1717 -12z"/>
<path d="M874 299 c-3 -6 -2 -15 3 -20 5 -5 1344 -8 3359 -7 2969 3 3349 5
3349 18 0 13 -380 15 -3352 18 -2408 1 -3354 -1 -3359 -9z"/>
</g>
</svg>
